{
  "asset": {
    "version": "2.0",
    "generator": "Surrender Machines spatial generator \u2014 Mark Walhimer"
  },
  "scene": 0,
  "scenes": [
    {
      "name": "Surrender Machines \u2014 visitor path",
      "nodes": [
        101
      ]
    }
  ],
  "nodes": [
    {
      "name": "01_entry_floor",
      "mesh": 0
    },
    {
      "name": "01_entry_ceiling",
      "mesh": 1
    },
    {
      "name": "01_entry_wall_xn",
      "mesh": 2
    },
    {
      "name": "01_entry_wall_xp",
      "mesh": 3
    },
    {
      "name": "01_entry_wall_nz_l",
      "mesh": 4
    },
    {
      "name": "01_entry_wall_nz_r",
      "mesh": 5
    },
    {
      "name": "01_entry_lintel_nz",
      "mesh": 6
    },
    {
      "name": "01_entry_wall_pz_l",
      "mesh": 7
    },
    {
      "name": "01_entry_wall_pz_r",
      "mesh": 8
    },
    {
      "name": "01_entry_lintel_pz",
      "mesh": 9
    },
    {
      "name": "01_doorway_shape_seg_0",
      "mesh": 10
    },
    {
      "name": "01_doorway_shape_seg_1",
      "mesh": 11
    },
    {
      "name": "01_doorway_shape_seg_2",
      "mesh": 12
    },
    {
      "name": "01_doorway_shape_seg_3",
      "mesh": 13
    },
    {
      "name": "01_doorway_shape_seg_4",
      "mesh": 14
    },
    {
      "name": "01_doorway_shape_seg_5",
      "mesh": 15
    },
    {
      "name": "01_doorway_shape_seg_6",
      "mesh": 16
    },
    {
      "name": "01_doorway_shape_seg_7",
      "mesh": 17
    },
    {
      "name": "01_doorway_shape_seg_8",
      "mesh": 18
    },
    {
      "name": "01_doorway_shape_seg_9",
      "mesh": 19
    },
    {
      "name": "01_doorway_shape_seg_10",
      "mesh": 20
    },
    {
      "name": "01_doorway_shape_seg_11",
      "mesh": 21
    },
    {
      "name": "01_doorway_shape_seg_12",
      "mesh": 22
    },
    {
      "name": "01_doorway_shape_seg_13",
      "mesh": 23
    },
    {
      "name": "01_doorway_shape_seg_14",
      "mesh": 24
    },
    {
      "name": "01_doorway_shape_seg_15",
      "mesh": 25
    },
    {
      "name": "01_doorway_shape_seg_16",
      "mesh": 26
    },
    {
      "name": "01_doorway_shape_seg_17",
      "mesh": 27
    },
    {
      "name": "01_doorway_shape_seg_18",
      "mesh": 28
    },
    {
      "name": "01_doorway_shape_seg_19",
      "mesh": 29
    },
    {
      "name": "01_doorway_shape_seg_20",
      "mesh": 30
    },
    {
      "name": "01_doorway_shape_seg_21",
      "mesh": 31
    },
    {
      "name": "01_doorway_shape_seg_22",
      "mesh": 32
    },
    {
      "name": "01_doorway_shape_seg_23",
      "mesh": 33
    },
    {
      "name": "01_doorway_shape_left",
      "mesh": 34
    },
    {
      "name": "01_doorway_shape_right",
      "mesh": 35
    },
    {
      "name": "02_hallway_intake_floor",
      "mesh": 36
    },
    {
      "name": "02_hallway_intake_ceiling",
      "mesh": 37
    },
    {
      "name": "02_hallway_intake_wall_xn",
      "mesh": 38
    },
    {
      "name": "02_hallway_intake_wall_xp",
      "mesh": 39
    },
    {
      "name": "02_hallway_intake_wall_nz_l",
      "mesh": 40
    },
    {
      "name": "02_hallway_intake_wall_nz_r",
      "mesh": 41
    },
    {
      "name": "02_hallway_intake_lintel_nz",
      "mesh": 42
    },
    {
      "name": "02_hallway_intake_wall_pz_l",
      "mesh": 43
    },
    {
      "name": "02_hallway_intake_wall_pz_r",
      "mesh": 44
    },
    {
      "name": "02_hallway_intake_lintel_pz",
      "mesh": 45
    },
    {
      "name": "03_room_intake_floor",
      "mesh": 46
    },
    {
      "name": "03_room_intake_ceiling",
      "mesh": 47
    },
    {
      "name": "03_room_intake_wall_xn",
      "mesh": 48
    },
    {
      "name": "03_room_intake_wall_xp",
      "mesh": 49
    },
    {
      "name": "03_room_intake_wall_nz_l",
      "mesh": 50
    },
    {
      "name": "03_room_intake_wall_nz_r",
      "mesh": 51
    },
    {
      "name": "03_room_intake_lintel_nz",
      "mesh": 52
    },
    {
      "name": "03_room_intake_wall_pz_l",
      "mesh": 53
    },
    {
      "name": "03_room_intake_wall_pz_r",
      "mesh": 54
    },
    {
      "name": "03_room_intake_lintel_pz",
      "mesh": 55
    },
    {
      "name": "intake_machine_pedestal",
      "mesh": 56
    },
    {
      "name": "intake_machine_core",
      "mesh": 57
    },
    {
      "name": "intake_machine_horn",
      "mesh": 58
    },
    {
      "name": "intake_machine_col",
      "mesh": 59
    },
    {
      "name": "intake_machine_col",
      "mesh": 60
    },
    {
      "name": "04_hallway_surrender_floor",
      "mesh": 61
    },
    {
      "name": "04_hallway_surrender_ceiling",
      "mesh": 62
    },
    {
      "name": "04_hallway_surrender_wall_xn",
      "mesh": 63
    },
    {
      "name": "04_hallway_surrender_wall_xp",
      "mesh": 64
    },
    {
      "name": "04_hallway_surrender_wall_nz_l",
      "mesh": 65
    },
    {
      "name": "04_hallway_surrender_wall_nz_r",
      "mesh": 66
    },
    {
      "name": "04_hallway_surrender_lintel_nz",
      "mesh": 67
    },
    {
      "name": "04_hallway_surrender_wall_pz_l",
      "mesh": 68
    },
    {
      "name": "04_hallway_surrender_wall_pz_r",
      "mesh": 69
    },
    {
      "name": "04_hallway_surrender_lintel_pz",
      "mesh": 70
    },
    {
      "name": "05_room_surrender_floor",
      "mesh": 71
    },
    {
      "name": "05_room_surrender_ceiling",
      "mesh": 72
    },
    {
      "name": "05_room_surrender_wall_xn",
      "mesh": 73
    },
    {
      "name": "05_room_surrender_wall_xp",
      "mesh": 74
    },
    {
      "name": "05_room_surrender_wall_nz_l",
      "mesh": 75
    },
    {
      "name": "05_room_surrender_wall_nz_r",
      "mesh": 76
    },
    {
      "name": "05_room_surrender_lintel_nz",
      "mesh": 77
    },
    {
      "name": "05_room_surrender_wall_pz",
      "mesh": 78
    },
    {
      "name": "surrender_machine_platform",
      "mesh": 79
    },
    {
      "name": "surrender_machine_column",
      "mesh": 80
    },
    {
      "name": "surrender_machine_ego_ring",
      "mesh": 81
    },
    {
      "name": "surrender_machine_arm",
      "mesh": 82
    },
    {
      "name": "surrender_machine_arm",
      "mesh": 83
    },
    {
      "name": "surrender_machine_core",
      "mesh": 84
    },
    {
      "name": "surrender_machine_ped_-1.3",
      "mesh": 85
    },
    {
      "name": "surrender_machine_slider_-1.3",
      "mesh": 86
    },
    {
      "name": "surrender_machine_ped_1.3",
      "mesh": 87
    },
    {
      "name": "surrender_machine_slider_1.3",
      "mesh": 88
    },
    {
      "name": "path_marker_0",
      "mesh": 89
    },
    {
      "name": "path_marker_1",
      "mesh": 90
    },
    {
      "name": "path_marker_2",
      "mesh": 91
    },
    {
      "name": "path_marker_3",
      "mesh": 92
    },
    {
      "name": "path_marker_4",
      "mesh": 93
    },
    {
      "name": "01_Entry_Antechamber",
      "children": [
        0,
        1,
        2,
        3,
        4,
        5,
        6,
        7,
        8,
        9,
        10,
        11,
        12,
        13,
        14,
        15,
        16,
        17,
        18,
        19,
        20,
        21,
        22,
        23,
        24,
        25,
        26,
        27,
        28,
        29,
        30,
        31,
        32,
        33,
        34,
        35
      ]
    },
    {
      "name": "01_Doorway_Shape_Outline",
      "children": [
        10,
        11,
        12,
        13,
        14,
        15,
        16,
        17,
        18,
        19,
        20,
        21,
        22,
        23,
        24,
        25,
        26,
        27,
        28,
        29,
        30,
        31,
        32,
        33,
        34,
        35
      ]
    },
    {
      "name": "02_Hallway_To_Intake",
      "children": [
        36,
        37,
        38,
        39,
        40,
        41,
        42,
        43,
        44,
        45
      ]
    },
    {
      "name": "03_Room_Intake_Machine",
      "children": [
        46,
        47,
        48,
        49,
        50,
        51,
        52,
        53,
        54,
        55,
        56,
        57,
        58,
        59,
        60
      ]
    },
    {
      "name": "04_Hallway_To_Surrender",
      "children": [
        61,
        62,
        63,
        64,
        65,
        66,
        67,
        68,
        69,
        70
      ]
    },
    {
      "name": "05_Room_Surrender_Machine",
      "children": [
        71,
        72,
        73,
        74,
        75,
        76,
        77,
        78,
        79,
        80,
        81,
        82,
        83,
        84,
        85,
        86,
        87,
        88
      ]
    },
    {
      "name": "Visitor_Path",
      "children": [
        89,
        90,
        91,
        92,
        93
      ]
    },
    {
      "name": "SurrenderMachines_Root",
      "children": [
        94,
        95,
        96,
        97,
        98,
        99,
        100
      ]
    }
  ],
  "meshes": [
    {
      "name": "01_entry_floor",
      "primitives": [
        {
          "attributes": {
            "POSITION": 0
          },
          "indices": 1,
          "material": 1
        }
      ]
    },
    {
      "name": "01_entry_ceiling",
      "primitives": [
        {
          "attributes": {
            "POSITION": 2
          },
          "indices": 3,
          "material": 0
        }
      ]
    },
    {
      "name": "01_entry_wall_xn",
      "primitives": [
        {
          "attributes": {
            "POSITION": 4
          },
          "indices": 5,
          "material": 0
        }
      ]
    },
    {
      "name": "01_entry_wall_xp",
      "primitives": [
        {
          "attributes": {
            "POSITION": 6
          },
          "indices": 7,
          "material": 0
        }
      ]
    },
    {
      "name": "01_entry_wall_nz_l",
      "primitives": [
        {
          "attributes": {
            "POSITION": 8
          },
          "indices": 9,
          "material": 0
        }
      ]
    },
    {
      "name": "01_entry_wall_nz_r",
      "primitives": [
        {
          "attributes": {
            "POSITION": 10
          },
          "indices": 11,
          "material": 0
        }
      ]
    },
    {
      "name": "01_entry_lintel_nz",
      "primitives": [
        {
          "attributes": {
            "POSITION": 12
          },
          "indices": 13,
          "material": 0
        }
      ]
    },
    {
      "name": "01_entry_wall_pz_l",
      "primitives": [
        {
          "attributes": {
            "POSITION": 14
          },
          "indices": 15,
          "material": 0
        }
      ]
    },
    {
      "name": "01_entry_wall_pz_r",
      "primitives": [
        {
          "attributes": {
            "POSITION": 16
          },
          "indices": 17,
          "material": 0
        }
      ]
    },
    {
      "name": "01_entry_lintel_pz",
      "primitives": [
        {
          "attributes": {
            "POSITION": 18
          },
          "indices": 19,
          "material": 0
        }
      ]
    },
    {
      "name": "01_doorway_shape_seg_0",
      "primitives": [
        {
          "attributes": {
            "POSITION": 20
          },
          "indices": 21,
          "material": 5
        }
      ]
    },
    {
      "name": "01_doorway_shape_seg_1",
      "primitives": [
        {
          "attributes": {
            "POSITION": 22
          },
          "indices": 23,
          "material": 5
        }
      ]
    },
    {
      "name": "01_doorway_shape_seg_2",
      "primitives": [
        {
          "attributes": {
            "POSITION": 24
          },
          "indices": 25,
          "material": 5
        }
      ]
    },
    {
      "name": "01_doorway_shape_seg_3",
      "primitives": [
        {
          "attributes": {
            "POSITION": 26
          },
          "indices": 27,
          "material": 5
        }
      ]
    },
    {
      "name": "01_doorway_shape_seg_4",
      "primitives": [
        {
          "attributes": {
            "POSITION": 28
          },
          "indices": 29,
          "material": 5
        }
      ]
    },
    {
      "name": "01_doorway_shape_seg_5",
      "primitives": [
        {
          "attributes": {
            "POSITION": 30
          },
          "indices": 31,
          "material": 5
        }
      ]
    },
    {
      "name": "01_doorway_shape_seg_6",
      "primitives": [
        {
          "attributes": {
            "POSITION": 32
          },
          "indices": 33,
          "material": 5
        }
      ]
    },
    {
      "name": "01_doorway_shape_seg_7",
      "primitives": [
        {
          "attributes": {
            "POSITION": 34
          },
          "indices": 35,
          "material": 5
        }
      ]
    },
    {
      "name": "01_doorway_shape_seg_8",
      "primitives": [
        {
          "attributes": {
            "POSITION": 36
          },
          "indices": 37,
          "material": 5
        }
      ]
    },
    {
      "name": "01_doorway_shape_seg_9",
      "primitives": [
        {
          "attributes": {
            "POSITION": 38
          },
          "indices": 39,
          "material": 5
        }
      ]
    },
    {
      "name": "01_doorway_shape_seg_10",
      "primitives": [
        {
          "attributes": {
            "POSITION": 40
          },
          "indices": 41,
          "material": 5
        }
      ]
    },
    {
      "name": "01_doorway_shape_seg_11",
      "primitives": [
        {
          "attributes": {
            "POSITION": 42
          },
          "indices": 43,
          "material": 5
        }
      ]
    },
    {
      "name": "01_doorway_shape_seg_12",
      "primitives": [
        {
          "attributes": {
            "POSITION": 44
          },
          "indices": 45,
          "material": 5
        }
      ]
    },
    {
      "name": "01_doorway_shape_seg_13",
      "primitives": [
        {
          "attributes": {
            "POSITION": 46
          },
          "indices": 47,
          "material": 5
        }
      ]
    },
    {
      "name": "01_doorway_shape_seg_14",
      "primitives": [
        {
          "attributes": {
            "POSITION": 48
          },
          "indices": 49,
          "material": 5
        }
      ]
    },
    {
      "name": "01_doorway_shape_seg_15",
      "primitives": [
        {
          "attributes": {
            "POSITION": 50
          },
          "indices": 51,
          "material": 5
        }
      ]
    },
    {
      "name": "01_doorway_shape_seg_16",
      "primitives": [
        {
          "attributes": {
            "POSITION": 52
          },
          "indices": 53,
          "material": 5
        }
      ]
    },
    {
      "name": "01_doorway_shape_seg_17",
      "primitives": [
        {
          "attributes": {
            "POSITION": 54
          },
          "indices": 55,
          "material": 5
        }
      ]
    },
    {
      "name": "01_doorway_shape_seg_18",
      "primitives": [
        {
          "attributes": {
            "POSITION": 56
          },
          "indices": 57,
          "material": 5
        }
      ]
    },
    {
      "name": "01_doorway_shape_seg_19",
      "primitives": [
        {
          "attributes": {
            "POSITION": 58
          },
          "indices": 59,
          "material": 5
        }
      ]
    },
    {
      "name": "01_doorway_shape_seg_20",
      "primitives": [
        {
          "attributes": {
            "POSITION": 60
          },
          "indices": 61,
          "material": 5
        }
      ]
    },
    {
      "name": "01_doorway_shape_seg_21",
      "primitives": [
        {
          "attributes": {
            "POSITION": 62
          },
          "indices": 63,
          "material": 5
        }
      ]
    },
    {
      "name": "01_doorway_shape_seg_22",
      "primitives": [
        {
          "attributes": {
            "POSITION": 64
          },
          "indices": 65,
          "material": 5
        }
      ]
    },
    {
      "name": "01_doorway_shape_seg_23",
      "primitives": [
        {
          "attributes": {
            "POSITION": 66
          },
          "indices": 67,
          "material": 5
        }
      ]
    },
    {
      "name": "01_doorway_shape_left",
      "primitives": [
        {
          "attributes": {
            "POSITION": 68
          },
          "indices": 69,
          "material": 5
        }
      ]
    },
    {
      "name": "01_doorway_shape_right",
      "primitives": [
        {
          "attributes": {
            "POSITION": 70
          },
          "indices": 71,
          "material": 5
        }
      ]
    },
    {
      "name": "02_hallway_intake_floor",
      "primitives": [
        {
          "attributes": {
            "POSITION": 72
          },
          "indices": 73,
          "material": 1
        }
      ]
    },
    {
      "name": "02_hallway_intake_ceiling",
      "primitives": [
        {
          "attributes": {
            "POSITION": 74
          },
          "indices": 75,
          "material": 0
        }
      ]
    },
    {
      "name": "02_hallway_intake_wall_xn",
      "primitives": [
        {
          "attributes": {
            "POSITION": 76
          },
          "indices": 77,
          "material": 0
        }
      ]
    },
    {
      "name": "02_hallway_intake_wall_xp",
      "primitives": [
        {
          "attributes": {
            "POSITION": 78
          },
          "indices": 79,
          "material": 0
        }
      ]
    },
    {
      "name": "02_hallway_intake_wall_nz_l",
      "primitives": [
        {
          "attributes": {
            "POSITION": 80
          },
          "indices": 81,
          "material": 0
        }
      ]
    },
    {
      "name": "02_hallway_intake_wall_nz_r",
      "primitives": [
        {
          "attributes": {
            "POSITION": 82
          },
          "indices": 83,
          "material": 0
        }
      ]
    },
    {
      "name": "02_hallway_intake_lintel_nz",
      "primitives": [
        {
          "attributes": {
            "POSITION": 84
          },
          "indices": 85,
          "material": 0
        }
      ]
    },
    {
      "name": "02_hallway_intake_wall_pz_l",
      "primitives": [
        {
          "attributes": {
            "POSITION": 86
          },
          "indices": 87,
          "material": 0
        }
      ]
    },
    {
      "name": "02_hallway_intake_wall_pz_r",
      "primitives": [
        {
          "attributes": {
            "POSITION": 88
          },
          "indices": 89,
          "material": 0
        }
      ]
    },
    {
      "name": "02_hallway_intake_lintel_pz",
      "primitives": [
        {
          "attributes": {
            "POSITION": 90
          },
          "indices": 91,
          "material": 0
        }
      ]
    },
    {
      "name": "03_room_intake_floor",
      "primitives": [
        {
          "attributes": {
            "POSITION": 92
          },
          "indices": 93,
          "material": 1
        }
      ]
    },
    {
      "name": "03_room_intake_ceiling",
      "primitives": [
        {
          "attributes": {
            "POSITION": 94
          },
          "indices": 95,
          "material": 0
        }
      ]
    },
    {
      "name": "03_room_intake_wall_xn",
      "primitives": [
        {
          "attributes": {
            "POSITION": 96
          },
          "indices": 97,
          "material": 0
        }
      ]
    },
    {
      "name": "03_room_intake_wall_xp",
      "primitives": [
        {
          "attributes": {
            "POSITION": 98
          },
          "indices": 99,
          "material": 0
        }
      ]
    },
    {
      "name": "03_room_intake_wall_nz_l",
      "primitives": [
        {
          "attributes": {
            "POSITION": 100
          },
          "indices": 101,
          "material": 0
        }
      ]
    },
    {
      "name": "03_room_intake_wall_nz_r",
      "primitives": [
        {
          "attributes": {
            "POSITION": 102
          },
          "indices": 103,
          "material": 0
        }
      ]
    },
    {
      "name": "03_room_intake_lintel_nz",
      "primitives": [
        {
          "attributes": {
            "POSITION": 104
          },
          "indices": 105,
          "material": 0
        }
      ]
    },
    {
      "name": "03_room_intake_wall_pz_l",
      "primitives": [
        {
          "attributes": {
            "POSITION": 106
          },
          "indices": 107,
          "material": 0
        }
      ]
    },
    {
      "name": "03_room_intake_wall_pz_r",
      "primitives": [
        {
          "attributes": {
            "POSITION": 108
          },
          "indices": 109,
          "material": 0
        }
      ]
    },
    {
      "name": "03_room_intake_lintel_pz",
      "primitives": [
        {
          "attributes": {
            "POSITION": 110
          },
          "indices": 111,
          "material": 0
        }
      ]
    },
    {
      "name": "intake_machine_pedestal",
      "primitives": [
        {
          "attributes": {
            "POSITION": 112
          },
          "indices": 113,
          "material": 3
        }
      ]
    },
    {
      "name": "intake_machine_core",
      "primitives": [
        {
          "attributes": {
            "POSITION": 114
          },
          "indices": 115,
          "material": 2
        }
      ]
    },
    {
      "name": "intake_machine_horn",
      "primitives": [
        {
          "attributes": {
            "POSITION": 116
          },
          "indices": 117,
          "material": 2
        }
      ]
    },
    {
      "name": "intake_machine_col",
      "primitives": [
        {
          "attributes": {
            "POSITION": 118
          },
          "indices": 119,
          "material": 2
        }
      ]
    },
    {
      "name": "intake_machine_col",
      "primitives": [
        {
          "attributes": {
            "POSITION": 120
          },
          "indices": 121,
          "material": 2
        }
      ]
    },
    {
      "name": "04_hallway_surrender_floor",
      "primitives": [
        {
          "attributes": {
            "POSITION": 122
          },
          "indices": 123,
          "material": 1
        }
      ]
    },
    {
      "name": "04_hallway_surrender_ceiling",
      "primitives": [
        {
          "attributes": {
            "POSITION": 124
          },
          "indices": 125,
          "material": 0
        }
      ]
    },
    {
      "name": "04_hallway_surrender_wall_xn",
      "primitives": [
        {
          "attributes": {
            "POSITION": 126
          },
          "indices": 127,
          "material": 0
        }
      ]
    },
    {
      "name": "04_hallway_surrender_wall_xp",
      "primitives": [
        {
          "attributes": {
            "POSITION": 128
          },
          "indices": 129,
          "material": 0
        }
      ]
    },
    {
      "name": "04_hallway_surrender_wall_nz_l",
      "primitives": [
        {
          "attributes": {
            "POSITION": 130
          },
          "indices": 131,
          "material": 0
        }
      ]
    },
    {
      "name": "04_hallway_surrender_wall_nz_r",
      "primitives": [
        {
          "attributes": {
            "POSITION": 132
          },
          "indices": 133,
          "material": 0
        }
      ]
    },
    {
      "name": "04_hallway_surrender_lintel_nz",
      "primitives": [
        {
          "attributes": {
            "POSITION": 134
          },
          "indices": 135,
          "material": 0
        }
      ]
    },
    {
      "name": "04_hallway_surrender_wall_pz_l",
      "primitives": [
        {
          "attributes": {
            "POSITION": 136
          },
          "indices": 137,
          "material": 0
        }
      ]
    },
    {
      "name": "04_hallway_surrender_wall_pz_r",
      "primitives": [
        {
          "attributes": {
            "POSITION": 138
          },
          "indices": 139,
          "material": 0
        }
      ]
    },
    {
      "name": "04_hallway_surrender_lintel_pz",
      "primitives": [
        {
          "attributes": {
            "POSITION": 140
          },
          "indices": 141,
          "material": 0
        }
      ]
    },
    {
      "name": "05_room_surrender_floor",
      "primitives": [
        {
          "attributes": {
            "POSITION": 142
          },
          "indices": 143,
          "material": 1
        }
      ]
    },
    {
      "name": "05_room_surrender_ceiling",
      "primitives": [
        {
          "attributes": {
            "POSITION": 144
          },
          "indices": 145,
          "material": 0
        }
      ]
    },
    {
      "name": "05_room_surrender_wall_xn",
      "primitives": [
        {
          "attributes": {
            "POSITION": 146
          },
          "indices": 147,
          "material": 0
        }
      ]
    },
    {
      "name": "05_room_surrender_wall_xp",
      "primitives": [
        {
          "attributes": {
            "POSITION": 148
          },
          "indices": 149,
          "material": 0
        }
      ]
    },
    {
      "name": "05_room_surrender_wall_nz_l",
      "primitives": [
        {
          "attributes": {
            "POSITION": 150
          },
          "indices": 151,
          "material": 0
        }
      ]
    },
    {
      "name": "05_room_surrender_wall_nz_r",
      "primitives": [
        {
          "attributes": {
            "POSITION": 152
          },
          "indices": 153,
          "material": 0
        }
      ]
    },
    {
      "name": "05_room_surrender_lintel_nz",
      "primitives": [
        {
          "attributes": {
            "POSITION": 154
          },
          "indices": 155,
          "material": 0
        }
      ]
    },
    {
      "name": "05_room_surrender_wall_pz",
      "primitives": [
        {
          "attributes": {
            "POSITION": 156
          },
          "indices": 157,
          "material": 0
        }
      ]
    },
    {
      "name": "surrender_machine_platform",
      "primitives": [
        {
          "attributes": {
            "POSITION": 158
          },
          "indices": 159,
          "material": 3
        }
      ]
    },
    {
      "name": "surrender_machine_column",
      "primitives": [
        {
          "attributes": {
            "POSITION": 160
          },
          "indices": 161,
          "material": 3
        }
      ]
    },
    {
      "name": "surrender_machine_ego_ring",
      "primitives": [
        {
          "attributes": {
            "POSITION": 162
          },
          "indices": 163,
          "material": 2
        }
      ]
    },
    {
      "name": "surrender_machine_arm",
      "primitives": [
        {
          "attributes": {
            "POSITION": 164
          },
          "indices": 165,
          "material": 2
        }
      ]
    },
    {
      "name": "surrender_machine_arm",
      "primitives": [
        {
          "attributes": {
            "POSITION": 166
          },
          "indices": 167,
          "material": 2
        }
      ]
    },
    {
      "name": "surrender_machine_core",
      "primitives": [
        {
          "attributes": {
            "POSITION": 168
          },
          "indices": 169,
          "material": 4
        }
      ]
    },
    {
      "name": "surrender_machine_ped_-1.3",
      "primitives": [
        {
          "attributes": {
            "POSITION": 170
          },
          "indices": 171,
          "material": 3
        }
      ]
    },
    {
      "name": "surrender_machine_slider_-1.3",
      "primitives": [
        {
          "attributes": {
            "POSITION": 172
          },
          "indices": 173,
          "material": 2
        }
      ]
    },
    {
      "name": "surrender_machine_ped_1.3",
      "primitives": [
        {
          "attributes": {
            "POSITION": 174
          },
          "indices": 175,
          "material": 3
        }
      ]
    },
    {
      "name": "surrender_machine_slider_1.3",
      "primitives": [
        {
          "attributes": {
            "POSITION": 176
          },
          "indices": 177,
          "material": 2
        }
      ]
    },
    {
      "name": "path_marker_0",
      "primitives": [
        {
          "attributes": {
            "POSITION": 178
          },
          "indices": 179,
          "material": 6
        }
      ]
    },
    {
      "name": "path_marker_1",
      "primitives": [
        {
          "attributes": {
            "POSITION": 180
          },
          "indices": 181,
          "material": 6
        }
      ]
    },
    {
      "name": "path_marker_2",
      "primitives": [
        {
          "attributes": {
            "POSITION": 182
          },
          "indices": 183,
          "material": 6
        }
      ]
    },
    {
      "name": "path_marker_3",
      "primitives": [
        {
          "attributes": {
            "POSITION": 184
          },
          "indices": 185,
          "material": 6
        }
      ]
    },
    {
      "name": "path_marker_4",
      "primitives": [
        {
          "attributes": {
            "POSITION": 186
          },
          "indices": 187,
          "material": 6
        }
      ]
    }
  ],
  "materials": [
    {
      "name": "wall_black",
      "pbrMetallicRoughness": {
        "baseColorFactor": [
          0.07,
          0.07,
          0.07,
          1.0
        ],
        "metallicFactor": 0.0,
        "roughnessFactor": 0.95
      }
    },
    {
      "name": "floor_black",
      "pbrMetallicRoughness": {
        "baseColorFactor": [
          0.05,
          0.05,
          0.05,
          1.0
        ],
        "metallicFactor": 0.0,
        "roughnessFactor": 0.9
      }
    },
    {
      "name": "accent_brass",
      "pbrMetallicRoughness": {
        "baseColorFactor": [
          0.784,
          0.659,
          0.51,
          1.0
        ],
        "metallicFactor": 0.6,
        "roughnessFactor": 0.35
      }
    },
    {
      "name": "machine_body",
      "pbrMetallicRoughness": {
        "baseColorFactor": [
          0.12,
          0.11,
          0.1,
          1.0
        ],
        "metallicFactor": 0.25,
        "roughnessFactor": 0.7
      }
    },
    {
      "name": "surrender_core",
      "pbrMetallicRoughness": {
        "baseColorFactor": [
          0.659,
          0.525,
          0.306,
          0.85
        ],
        "metallicFactor": 0.8,
        "roughnessFactor": 0.2
      }
    },
    {
      "name": "doorway_outline",
      "pbrMetallicRoughness": {
        "baseColorFactor": [
          0.784,
          0.659,
          0.51,
          1.0
        ],
        "metallicFactor": 0.7,
        "roughnessFactor": 0.3
      }
    },
    {
      "name": "visitor_path",
      "pbrMetallicRoughness": {
        "baseColorFactor": [
          0.15,
          0.13,
          0.11,
          1.0
        ],
        "metallicFactor": 0.0,
        "roughnessFactor": 0.8
      }
    }
  ],
  "accessors": [
    {
      "bufferView": 0,
      "componentType": 5126,
      "count": 8,
      "type": "VEC3",
      "min": [
        -2.5,
        -0.025,
        0.0
      ],
      "max": [
        2.5,
        0.025,
        4.0
      ]
    },
    {
      "bufferView": 1,
      "componentType": 5123,
      "count": 36,
      "type": "SCALAR"
    },
    {
      "bufferView": 2,
      "componentType": 5126,
      "count": 8,
      "type": "VEC3",
      "min": [
        -2.5,
        3.1750000000000003,
        0.0
      ],
      "max": [
        2.5,
        3.225,
        4.0
      ]
    },
    {
      "bufferView": 3,
      "componentType": 5123,
      "count": 36,
      "type": "SCALAR"
    },
    {
      "bufferView": 4,
      "componentType": 5126,
      "count": 8,
      "type": "VEC3",
      "min": [
        -2.56,
        0.0,
        0.0
      ],
      "max": [
        -2.44,
        3.2,
        4.0
      ]
    },
    {
      "bufferView": 5,
      "componentType": 5123,
      "count": 36,
      "type": "SCALAR"
    },
    {
      "bufferView": 6,
      "componentType": 5126,
      "count": 8,
      "type": "VEC3",
      "min": [
        2.44,
        0.0,
        0.0
      ],
      "max": [
        2.56,
        3.2,
        4.0
      ]
    },
    {
      "bufferView": 7,
      "componentType": 5123,
      "count": 36,
      "type": "SCALAR"
    },
    {
      "bufferView": 8,
      "componentType": 5126,
      "count": 8,
      "type": "VEC3",
      "min": [
        -2.5,
        0.0,
        -0.06
      ],
      "max": [
        -0.7000000000000001,
        3.2,
        0.06
      ]
    },
    {
      "bufferView": 9,
      "componentType": 5123,
      "count": 36,
      "type": "SCALAR"
    },
    {
      "bufferView": 10,
      "componentType": 5126,
      "count": 8,
      "type": "VEC3",
      "min": [
        0.7000000000000001,
        0.0,
        -0.06
      ],
      "max": [
        2.5,
        3.2,
        0.06
      ]
    },
    {
      "bufferView": 11,
      "componentType": 5123,
      "count": 36,
      "type": "SCALAR"
    },
    {
      "bufferView": 12,
      "componentType": 5126,
      "count": 8,
      "type": "VEC3",
      "min": [
        -0.7,
        2.3,
        -0.06
      ],
      "max": [
        0.7,
        3.2,
        0.06
      ]
    },
    {
      "bufferView": 13,
      "componentType": 5123,
      "count": 36,
      "type": "SCALAR"
    },
    {
      "bufferView": 14,
      "componentType": 5126,
      "count": 8,
      "type": "VEC3",
      "min": [
        -2.5,
        0.0,
        3.94
      ],
      "max": [
        -0.7000000000000001,
        3.2,
        4.06
      ]
    },
    {
      "bufferView": 15,
      "componentType": 5123,
      "count": 36,
      "type": "SCALAR"
    },
    {
      "bufferView": 16,
      "componentType": 5126,
      "count": 8,
      "type": "VEC3",
      "min": [
        0.7000000000000001,
        0.0,
        3.94
      ],
      "max": [
        2.5,
        3.2,
        4.06
      ]
    },
    {
      "bufferView": 17,
      "componentType": 5123,
      "count": 36,
      "type": "SCALAR"
    },
    {
      "bufferView": 18,
      "componentType": 5126,
      "count": 8,
      "type": "VEC3",
      "min": [
        -0.7,
        2.3,
        3.94
      ],
      "max": [
        0.7,
        3.2,
        4.06
      ]
    },
    {
      "bufferView": 19,
      "componentType": 5123,
      "count": 36,
      "type": "SCALAR"
    },
    {
      "bufferView": 20,
      "componentType": 5126,
      "count": 8,
      "type": "VEC3",
      "min": [
        0.6412235110197334,
        0.41568416727701807,
        3.9
      ],
      "max": [
        0.7527878919419336,
        0.4756841672770181,
        3.98
      ]
    },
    {
      "bufferView": 21,
      "componentType": 5123,
      "count": 36,
      "type": "SCALAR"
    },
    {
      "bufferView": 22,
      "componentType": 5126,
      "count": 8,
      "type": "VEC3",
      "min": [
        0.6292975502209074,
        0.5062708330629003,
        3.9
      ],
      "max": [
        0.7408619311431076,
        0.5662708330629004,
        3.98
      ]
    },
    {
      "bufferView": 23,
      "componentType": 5123,
      "count": 36,
      "type": "SCALAR"
    },
    {
      "bufferView": 24,
      "componentType": 5126,
      "count": 8,
      "type": "VEC3",
      "min": [
        0.6056496851190241,
        0.5945258671136637,
        3.9
      ],
      "max": [
        0.7172140660412245,
        0.6545258671136638,
        3.98
      ]
    },
    {
      "bufferView": 25,
      "componentType": 5123,
      "count": 36,
      "type": "SCALAR"
    },
    {
      "bufferView": 26,
      "componentType": 5126,
      "count": 8,
      "type": "VEC3",
      "min": [
        0.5706845372424038,
        0.6789392013277814,
        3.9
      ],
      "max": [
        0.682248918164604,
        0.7389392013277815,
        3.98
      ]
    },
    {
      "bufferView": 27,
      "componentType": 5123,
      "count": 36,
      "type": "SCALAR"
    },
    {
      "bufferView": 28,
      "componentType": 5126,
      "count": 8,
      "type": "VEC3",
      "min": [
        0.5250003699653856,
        0.7580665001530522,
        3.9
      ],
      "max": [
        0.636564750887586,
        0.8180665001530523,
        3.98
      ]
    },
    {
      "bufferView": 29,
      "componentType": 5123,
      "count": 36,
      "type": "SCALAR"
    },
    {
      "bufferView": 30,
      "componentType": 5126,
      "count": 8,
      "type": "VEC3",
      "min": [
        0.46937885205612384,
        0.8305538735683438,
        3.9
      ],
      "max": [
        0.5809432329783241,
        0.8905538735683438,
        3.98
      ]
    },
    {
      "bufferView": 31,
      "componentType": 5123,
      "count": 36,
      "type": "SCALAR"
    },
    {
      "bufferView": 32,
      "componentType": 5126,
      "count": 8,
      "type": "VEC3",
      "min": [
        0.4047716831072437,
        0.8951610425172238,
        3.9
      ],
      "max": [
        0.5163360640294441,
        0.9551610425172239,
        3.98
      ]
    },
    {
      "bufferView": 33,
      "componentType": 5123,
      "count": 36,
      "type": "SCALAR"
    },
    {
      "bufferView": 34,
      "componentType": 5126,
      "count": 8,
      "type": "VEC3",
      "min": [
        0.3322843096919521,
        0.9507825604264858,
        3.9
      ],
      "max": [
        0.44384869061415233,
        1.0107825604264857,
        3.98
      ]
    },
    {
      "bufferView": 35,
      "componentType": 5123,
      "count": 36,
      "type": "SCALAR"
    },
    {
      "bufferView": 36,
      "componentType": 5126,
      "count": 8,
      "type": "VEC3",
      "min": [
        0.25315701086668124,
        0.9964667277035038,
        3.9
      ],
      "max": [
        0.3647213917888816,
        1.0564667277035038,
        3.98
      ]
    },
    {
      "bufferView": 37,
      "componentType": 5123,
      "count": 36,
      "type": "SCALAR"
    },
    {
      "bufferView": 38,
      "componentType": 5126,
      "count": 8,
      "type": "VEC3",
      "min": [
        0.1687436766525635,
        1.0314318755801242,
        3.9
      ],
      "max": [
        0.28030805757476385,
        1.0914318755801242,
        3.98
      ]
    },
    {
      "bufferView": 39,
      "componentType": 5123,
      "count": 36,
      "type": "SCALAR"
    },
    {
      "bufferView": 40,
      "componentType": 5126,
      "count": 8,
      "type": "VEC3",
      "min": [
        0.08048864260180026,
        1.0550797406820076,
        3.9
      ],
      "max": [
        0.19205302352400044,
        1.1150797406820077,
        3.98
      ]
    },
    {
      "bufferView": 41,
      "componentType": 5123,
      "count": 36,
      "type": "SCALAR"
    },
    {
      "bufferView": 42,
      "componentType": 5126,
      "count": 8,
      "type": "VEC3",
      "min": [
        -0.010098023184082053,
        1.0670057014808336,
        3.9
      ],
      "max": [
        0.10146635773811828,
        1.1270057014808337,
        3.98
      ]
    },
    {
      "bufferView": 43,
      "componentType": 5123,
      "count": 36,
      "type": "SCALAR"
    },
    {
      "bufferView": 44,
      "componentType": 5126,
      "count": 8,
      "type": "VEC3",
      "min": [
        -0.10146635773811806,
        1.0670057014808336,
        3.9
      ],
      "max": [
        0.010098023184082136,
        1.1270057014808337,
        3.98
      ]
    },
    {
      "bufferView": 45,
      "componentType": 5123,
      "count": 36,
      "type": "SCALAR"
    },
    {
      "bufferView": 46,
      "componentType": 5126,
      "count": 8,
      "type": "VEC3",
      "min": [
        -0.1920530235240005,
        1.0550797406820076,
        3.9
      ],
      "max": [
        -0.08048864260180005,
        1.1150797406820077,
        3.98
      ]
    },
    {
      "bufferView": 47,
      "componentType": 5123,
      "count": 36,
      "type": "SCALAR"
    },
    {
      "bufferView": 48,
      "componentType": 5126,
      "count": 8,
      "type": "VEC3",
      "min": [
        -0.2803080575747638,
        1.0314318755801242,
        3.9
      ],
      "max": [
        -0.16874367665256357,
        1.0914318755801242,
        3.98
      ]
    },
    {
      "bufferView": 49,
      "componentType": 5123,
      "count": 36,
      "type": "SCALAR"
    },
    {
      "bufferView": 50,
      "componentType": 5126,
      "count": 8,
      "type": "VEC3",
      "min": [
        -0.3647213917888814,
        0.996466727703504,
        3.9
      ],
      "max": [
        -0.2531570108666812,
        1.056466727703504,
        3.98
      ]
    },
    {
      "bufferView": 51,
      "componentType": 5123,
      "count": 36,
      "type": "SCALAR"
    },
    {
      "bufferView": 52,
      "componentType": 5126,
      "count": 8,
      "type": "VEC3",
      "min": [
        -0.44384869061415244,
        0.9507825604264859,
        3.9
      ],
      "max": [
        -0.3322843096919519,
        1.010782560426486,
        3.98
      ]
    },
    {
      "bufferView": 53,
      "componentType": 5123,
      "count": 36,
      "type": "SCALAR"
    },
    {
      "bufferView": 54,
      "componentType": 5126,
      "count": 8,
      "type": "VEC3",
      "min": [
        -0.5163360640294439,
        0.895161042517224,
        3.9
      ],
      "max": [
        -0.4047716831072437,
        0.955161042517224,
        3.98
      ]
    },
    {
      "bufferView": 55,
      "componentType": 5123,
      "count": 36,
      "type": "SCALAR"
    },
    {
      "bufferView": 56,
      "componentType": 5126,
      "count": 8,
      "type": "VEC3",
      "min": [
        -0.580943232978324,
        0.830553873568344,
        3.9
      ],
      "max": [
        -0.46937885205612373,
        0.890553873568344,
        3.98
      ]
    },
    {
      "bufferView": 57,
      "componentType": 5123,
      "count": 36,
      "type": "SCALAR"
    },
    {
      "bufferView": 58,
      "componentType": 5126,
      "count": 8,
      "type": "VEC3",
      "min": [
        -0.636564750887586,
        0.7580665001530522,
        3.9
      ],
      "max": [
        -0.5250003699653856,
        0.8180665001530523,
        3.98
      ]
    },
    {
      "bufferView": 59,
      "componentType": 5123,
      "count": 36,
      "type": "SCALAR"
    },
    {
      "bufferView": 60,
      "componentType": 5126,
      "count": 8,
      "type": "VEC3",
      "min": [
        -0.682248918164604,
        0.6789392013277814,
        3.9
      ],
      "max": [
        -0.5706845372424038,
        0.7389392013277815,
        3.98
      ]
    },
    {
      "bufferView": 61,
      "componentType": 5123,
      "count": 36,
      "type": "SCALAR"
    },
    {
      "bufferView": 62,
      "componentType": 5126,
      "count": 8,
      "type": "VEC3",
      "min": [
        -0.7172140660412242,
        0.5945258671136637,
        3.9
      ],
      "max": [
        -0.6056496851190242,
        0.6545258671136638,
        3.98
      ]
    },
    {
      "bufferView": 63,
      "componentType": 5123,
      "count": 36,
      "type": "SCALAR"
    },
    {
      "bufferView": 64,
      "componentType": 5126,
      "count": 8,
      "type": "VEC3",
      "min": [
        -0.7408619311431077,
        0.5062708330629004,
        3.9
      ],
      "max": [
        -0.6292975502209073,
        0.5662708330629005,
        3.98
      ]
    },
    {
      "bufferView": 65,
      "componentType": 5123,
      "count": 36,
      "type": "SCALAR"
    },
    {
      "bufferView": 66,
      "componentType": 5126,
      "count": 8,
      "type": "VEC3",
      "min": [
        -0.7527878919419336,
        0.41568416727701807,
        3.9
      ],
      "max": [
        -0.6412235110197334,
        0.4756841672770181,
        3.98
      ]
    },
    {
      "bufferView": 67,
      "componentType": 5123,
      "count": 36,
      "type": "SCALAR"
    },
    {
      "bufferView": 68,
      "componentType": 5126,
      "count": 8,
      "type": "VEC3",
      "min": [
        -0.73,
        0.4,
        3.9
      ],
      "max": [
        -0.6699999999999999,
        2.0,
        3.98
      ]
    },
    {
      "bufferView": 69,
      "componentType": 5123,
      "count": 36,
      "type": "SCALAR"
    },
    {
      "bufferView": 70,
      "componentType": 5126,
      "count": 8,
      "type": "VEC3",
      "min": [
        0.6699999999999999,
        0.4,
        3.9
      ],
      "max": [
        0.73,
        2.0,
        3.98
      ]
    },
    {
      "bufferView": 71,
      "componentType": 5123,
      "count": 36,
      "type": "SCALAR"
    },
    {
      "bufferView": 72,
      "componentType": 5126,
      "count": 8,
      "type": "VEC3",
      "min": [
        -0.9,
        -0.025,
        4.0
      ],
      "max": [
        0.9,
        0.025,
        12.0
      ]
    },
    {
      "bufferView": 73,
      "componentType": 5123,
      "count": 36,
      "type": "SCALAR"
    },
    {
      "bufferView": 74,
      "componentType": 5126,
      "count": 8,
      "type": "VEC3",
      "min": [
        -0.9,
        3.1750000000000003,
        4.0
      ],
      "max": [
        0.9,
        3.225,
        12.0
      ]
    },
    {
      "bufferView": 75,
      "componentType": 5123,
      "count": 36,
      "type": "SCALAR"
    },
    {
      "bufferView": 76,
      "componentType": 5126,
      "count": 8,
      "type": "VEC3",
      "min": [
        -0.96,
        0.0,
        4.0
      ],
      "max": [
        -0.8400000000000001,
        3.2,
        12.0
      ]
    },
    {
      "bufferView": 77,
      "componentType": 5123,
      "count": 36,
      "type": "SCALAR"
    },
    {
      "bufferView": 78,
      "componentType": 5126,
      "count": 8,
      "type": "VEC3",
      "min": [
        0.8400000000000001,
        0.0,
        4.0
      ],
      "max": [
        0.96,
        3.2,
        12.0
      ]
    },
    {
      "bufferView": 79,
      "componentType": 5123,
      "count": 36,
      "type": "SCALAR"
    },
    {
      "bufferView": 80,
      "componentType": 5126,
      "count": 8,
      "type": "VEC3",
      "min": [
        -0.9,
        0.0,
        3.94
      ],
      "max": [
        -0.765,
        3.2,
        4.06
      ]
    },
    {
      "bufferView": 81,
      "componentType": 5123,
      "count": 36,
      "type": "SCALAR"
    },
    {
      "bufferView": 82,
      "componentType": 5126,
      "count": 8,
      "type": "VEC3",
      "min": [
        0.765,
        0.0,
        3.94
      ],
      "max": [
        0.9,
        3.2,
        4.06
      ]
    },
    {
      "bufferView": 83,
      "componentType": 5123,
      "count": 36,
      "type": "SCALAR"
    },
    {
      "bufferView": 84,
      "componentType": 5126,
      "count": 8,
      "type": "VEC3",
      "min": [
        -0.765,
        2.3,
        3.94
      ],
      "max": [
        0.765,
        3.2,
        4.06
      ]
    },
    {
      "bufferView": 85,
      "componentType": 5123,
      "count": 36,
      "type": "SCALAR"
    },
    {
      "bufferView": 86,
      "componentType": 5126,
      "count": 8,
      "type": "VEC3",
      "min": [
        -0.9,
        0.0,
        11.94
      ],
      "max": [
        -0.765,
        3.2,
        12.06
      ]
    },
    {
      "bufferView": 87,
      "componentType": 5123,
      "count": 36,
      "type": "SCALAR"
    },
    {
      "bufferView": 88,
      "componentType": 5126,
      "count": 8,
      "type": "VEC3",
      "min": [
        0.765,
        0.0,
        11.94
      ],
      "max": [
        0.9,
        3.2,
        12.06
      ]
    },
    {
      "bufferView": 89,
      "componentType": 5123,
      "count": 36,
      "type": "SCALAR"
    },
    {
      "bufferView": 90,
      "componentType": 5126,
      "count": 8,
      "type": "VEC3",
      "min": [
        -0.765,
        2.3,
        11.94
      ],
      "max": [
        0.765,
        3.2,
        12.06
      ]
    },
    {
      "bufferView": 91,
      "componentType": 5123,
      "count": 36,
      "type": "SCALAR"
    },
    {
      "bufferView": 92,
      "componentType": 5126,
      "count": 8,
      "type": "VEC3",
      "min": [
        -2.25,
        -0.025,
        12.0
      ],
      "max": [
        2.25,
        0.025,
        18.0
      ]
    },
    {
      "bufferView": 93,
      "componentType": 5123,
      "count": 36,
      "type": "SCALAR"
    },
    {
      "bufferView": 94,
      "componentType": 5126,
      "count": 8,
      "type": "VEC3",
      "min": [
        -2.25,
        3.1750000000000003,
        12.0
      ],
      "max": [
        2.25,
        3.225,
        18.0
      ]
    },
    {
      "bufferView": 95,
      "componentType": 5123,
      "count": 36,
      "type": "SCALAR"
    },
    {
      "bufferView": 96,
      "componentType": 5126,
      "count": 8,
      "type": "VEC3",
      "min": [
        -2.31,
        0.0,
        12.0
      ],
      "max": [
        -2.19,
        3.2,
        18.0
      ]
    },
    {
      "bufferView": 97,
      "componentType": 5123,
      "count": 36,
      "type": "SCALAR"
    },
    {
      "bufferView": 98,
      "componentType": 5126,
      "count": 8,
      "type": "VEC3",
      "min": [
        2.19,
        0.0,
        12.0
      ],
      "max": [
        2.31,
        3.2,
        18.0
      ]
    },
    {
      "bufferView": 99,
      "componentType": 5123,
      "count": 36,
      "type": "SCALAR"
    },
    {
      "bufferView": 100,
      "componentType": 5126,
      "count": 8,
      "type": "VEC3",
      "min": [
        -2.25,
        0.0,
        11.94
      ],
      "max": [
        -0.7000000000000001,
        3.2,
        12.06
      ]
    },
    {
      "bufferView": 101,
      "componentType": 5123,
      "count": 36,
      "type": "SCALAR"
    },
    {
      "bufferView": 102,
      "componentType": 5126,
      "count": 8,
      "type": "VEC3",
      "min": [
        0.7000000000000001,
        0.0,
        11.94
      ],
      "max": [
        2.25,
        3.2,
        12.06
      ]
    },
    {
      "bufferView": 103,
      "componentType": 5123,
      "count": 36,
      "type": "SCALAR"
    },
    {
      "bufferView": 104,
      "componentType": 5126,
      "count": 8,
      "type": "VEC3",
      "min": [
        -0.7,
        2.3,
        11.94
      ],
      "max": [
        0.7,
        3.2,
        12.06
      ]
    },
    {
      "bufferView": 105,
      "componentType": 5123,
      "count": 36,
      "type": "SCALAR"
    },
    {
      "bufferView": 106,
      "componentType": 5126,
      "count": 8,
      "type": "VEC3",
      "min": [
        -2.25,
        0.0,
        17.94
      ],
      "max": [
        -0.7000000000000001,
        3.2,
        18.06
      ]
    },
    {
      "bufferView": 107,
      "componentType": 5123,
      "count": 36,
      "type": "SCALAR"
    },
    {
      "bufferView": 108,
      "componentType": 5126,
      "count": 8,
      "type": "VEC3",
      "min": [
        0.7000000000000001,
        0.0,
        17.94
      ],
      "max": [
        2.25,
        3.2,
        18.06
      ]
    },
    {
      "bufferView": 109,
      "componentType": 5123,
      "count": 36,
      "type": "SCALAR"
    },
    {
      "bufferView": 110,
      "componentType": 5126,
      "count": 8,
      "type": "VEC3",
      "min": [
        -0.7,
        2.3,
        17.94
      ],
      "max": [
        0.7,
        3.2,
        18.06
      ]
    },
    {
      "bufferView": 111,
      "componentType": 5123,
      "count": 36,
      "type": "SCALAR"
    },
    {
      "bufferView": 112,
      "componentType": 5126,
      "count": 8,
      "type": "VEC3",
      "min": [
        -0.4,
        0.0,
        14.6
      ],
      "max": [
        0.4,
        1.8,
        15.4
      ]
    },
    {
      "bufferView": 113,
      "componentType": 5123,
      "count": 36,
      "type": "SCALAR"
    },
    {
      "bufferView": 114,
      "componentType": 5126,
      "count": 8,
      "type": "VEC3",
      "min": [
        -0.25,
        1.3,
        14.75
      ],
      "max": [
        0.25,
        1.9000000000000001,
        15.25
      ]
    },
    {
      "bufferView": 115,
      "componentType": 5123,
      "count": 36,
      "type": "SCALAR"
    },
    {
      "bufferView": 116,
      "componentType": 5126,
      "count": 8,
      "type": "VEC3",
      "min": [
        -0.175,
        1.825,
        14.674999999999999
      ],
      "max": [
        0.175,
        2.075,
        15.025
      ]
    },
    {
      "bufferView": 117,
      "componentType": 5123,
      "count": 36,
      "type": "SCALAR"
    },
    {
      "bufferView": 118,
      "componentType": 5126,
      "count": 8,
      "type": "VEC3",
      "min": [
        -0.26,
        1.1,
        15.180000000000001
      ],
      "max": [
        -0.18,
        1.6,
        15.26
      ]
    },
    {
      "bufferView": 119,
      "componentType": 5123,
      "count": 36,
      "type": "SCALAR"
    },
    {
      "bufferView": 120,
      "componentType": 5126,
      "count": 8,
      "type": "VEC3",
      "min": [
        0.18,
        1.1,
        15.180000000000001
      ],
      "max": [
        0.26,
        1.6,
        15.26
      ]
    },
    {
      "bufferView": 121,
      "componentType": 5123,
      "count": 36,
      "type": "SCALAR"
    },
    {
      "bufferView": 122,
      "componentType": 5126,
      "count": 8,
      "type": "VEC3",
      "min": [
        -1.0,
        -0.025,
        18.0
      ],
      "max": [
        1.0,
        0.025,
        24.0
      ]
    },
    {
      "bufferView": 123,
      "componentType": 5123,
      "count": 36,
      "type": "SCALAR"
    },
    {
      "bufferView": 124,
      "componentType": 5126,
      "count": 8,
      "type": "VEC3",
      "min": [
        -1.0,
        3.1750000000000003,
        18.0
      ],
      "max": [
        1.0,
        3.225,
        24.0
      ]
    },
    {
      "bufferView": 125,
      "componentType": 5123,
      "count": 36,
      "type": "SCALAR"
    },
    {
      "bufferView": 126,
      "componentType": 5126,
      "count": 8,
      "type": "VEC3",
      "min": [
        -1.06,
        0.0,
        18.0
      ],
      "max": [
        -0.94,
        3.2,
        24.0
      ]
    },
    {
      "bufferView": 127,
      "componentType": 5123,
      "count": 36,
      "type": "SCALAR"
    },
    {
      "bufferView": 128,
      "componentType": 5126,
      "count": 8,
      "type": "VEC3",
      "min": [
        0.94,
        0.0,
        18.0
      ],
      "max": [
        1.06,
        3.2,
        24.0
      ]
    },
    {
      "bufferView": 129,
      "componentType": 5123,
      "count": 36,
      "type": "SCALAR"
    },
    {
      "bufferView": 130,
      "componentType": 5126,
      "count": 8,
      "type": "VEC3",
      "min": [
        -1.0,
        0.0,
        17.94
      ],
      "max": [
        -0.8500000000000001,
        3.2,
        18.06
      ]
    },
    {
      "bufferView": 131,
      "componentType": 5123,
      "count": 36,
      "type": "SCALAR"
    },
    {
      "bufferView": 132,
      "componentType": 5126,
      "count": 8,
      "type": "VEC3",
      "min": [
        0.8500000000000001,
        0.0,
        17.94
      ],
      "max": [
        1.0,
        3.2,
        18.06
      ]
    },
    {
      "bufferView": 133,
      "componentType": 5123,
      "count": 36,
      "type": "SCALAR"
    },
    {
      "bufferView": 134,
      "componentType": 5126,
      "count": 8,
      "type": "VEC3",
      "min": [
        -0.85,
        2.3,
        17.94
      ],
      "max": [
        0.85,
        3.2,
        18.06
      ]
    },
    {
      "bufferView": 135,
      "componentType": 5123,
      "count": 36,
      "type": "SCALAR"
    },
    {
      "bufferView": 136,
      "componentType": 5126,
      "count": 8,
      "type": "VEC3",
      "min": [
        -1.0,
        0.0,
        23.94
      ],
      "max": [
        -0.8500000000000001,
        3.2,
        24.06
      ]
    },
    {
      "bufferView": 137,
      "componentType": 5123,
      "count": 36,
      "type": "SCALAR"
    },
    {
      "bufferView": 138,
      "componentType": 5126,
      "count": 8,
      "type": "VEC3",
      "min": [
        0.8500000000000001,
        0.0,
        23.94
      ],
      "max": [
        1.0,
        3.2,
        24.06
      ]
    },
    {
      "bufferView": 139,
      "componentType": 5123,
      "count": 36,
      "type": "SCALAR"
    },
    {
      "bufferView": 140,
      "componentType": 5126,
      "count": 8,
      "type": "VEC3",
      "min": [
        -0.85,
        2.3,
        23.94
      ],
      "max": [
        0.85,
        3.2,
        24.06
      ]
    },
    {
      "bufferView": 141,
      "componentType": 5123,
      "count": 36,
      "type": "SCALAR"
    },
    {
      "bufferView": 142,
      "componentType": 5126,
      "count": 8,
      "type": "VEC3",
      "min": [
        -3.0,
        -0.025,
        24.0
      ],
      "max": [
        3.0,
        0.025,
        31.0
      ]
    },
    {
      "bufferView": 143,
      "componentType": 5123,
      "count": 36,
      "type": "SCALAR"
    },
    {
      "bufferView": 144,
      "componentType": 5126,
      "count": 8,
      "type": "VEC3",
      "min": [
        -3.0,
        3.1750000000000003,
        24.0
      ],
      "max": [
        3.0,
        3.225,
        31.0
      ]
    },
    {
      "bufferView": 145,
      "componentType": 5123,
      "count": 36,
      "type": "SCALAR"
    },
    {
      "bufferView": 146,
      "componentType": 5126,
      "count": 8,
      "type": "VEC3",
      "min": [
        -3.06,
        0.0,
        24.0
      ],
      "max": [
        -2.94,
        3.2,
        31.0
      ]
    },
    {
      "bufferView": 147,
      "componentType": 5123,
      "count": 36,
      "type": "SCALAR"
    },
    {
      "bufferView": 148,
      "componentType": 5126,
      "count": 8,
      "type": "VEC3",
      "min": [
        2.94,
        0.0,
        24.0
      ],
      "max": [
        3.06,
        3.2,
        31.0
      ]
    },
    {
      "bufferView": 149,
      "componentType": 5123,
      "count": 36,
      "type": "SCALAR"
    },
    {
      "bufferView": 150,
      "componentType": 5126,
      "count": 8,
      "type": "VEC3",
      "min": [
        -3.0,
        0.0,
        23.94
      ],
      "max": [
        -0.7999999999999998,
        3.2,
        24.06
      ]
    },
    {
      "bufferView": 151,
      "componentType": 5123,
      "count": 36,
      "type": "SCALAR"
    },
    {
      "bufferView": 152,
      "componentType": 5126,
      "count": 8,
      "type": "VEC3",
      "min": [
        0.7999999999999998,
        0.0,
        23.94
      ],
      "max": [
        3.0,
        3.2,
        24.06
      ]
    },
    {
      "bufferView": 153,
      "componentType": 5123,
      "count": 36,
      "type": "SCALAR"
    },
    {
      "bufferView": 154,
      "componentType": 5126,
      "count": 8,
      "type": "VEC3",
      "min": [
        -0.8,
        2.3,
        23.94
      ],
      "max": [
        0.8,
        3.2,
        24.06
      ]
    },
    {
      "bufferView": 155,
      "componentType": 5123,
      "count": 36,
      "type": "SCALAR"
    },
    {
      "bufferView": 156,
      "componentType": 5126,
      "count": 8,
      "type": "VEC3",
      "min": [
        -3.0,
        0.0,
        30.94
      ],
      "max": [
        3.0,
        3.2,
        31.06
      ]
    },
    {
      "bufferView": 157,
      "componentType": 5123,
      "count": 36,
      "type": "SCALAR"
    },
    {
      "bufferView": 158,
      "componentType": 5126,
      "count": 8,
      "type": "VEC3",
      "min": [
        -1.6,
        0.0,
        26.1
      ],
      "max": [
        1.6,
        0.3,
        28.9
      ]
    },
    {
      "bufferView": 159,
      "componentType": 5123,
      "count": 36,
      "type": "SCALAR"
    },
    {
      "bufferView": 160,
      "componentType": 5126,
      "count": 8,
      "type": "VEC3",
      "min": [
        -0.3,
        0.2999999999999998,
        27.2
      ],
      "max": [
        0.3,
        2.5,
        27.8
      ]
    },
    {
      "bufferView": 161,
      "componentType": 5123,
      "count": 36,
      "type": "SCALAR"
    },
    {
      "bufferView": 162,
      "componentType": 5126,
      "count": 8,
      "type": "VEC3",
      "min": [
        -0.8,
        1.74,
        26.7
      ],
      "max": [
        0.8,
        1.86,
        28.3
      ]
    },
    {
      "bufferView": 163,
      "componentType": 5123,
      "count": 36,
      "type": "SCALAR"
    },
    {
      "bufferView": 164,
      "componentType": 5126,
      "count": 8,
      "type": "VEC3",
      "min": [
        -1.2,
        1.01,
        26.51
      ],
      "max": [
        1.2,
        1.1900000000000002,
        26.69
      ]
    },
    {
      "bufferView": 165,
      "componentType": 5123,
      "count": 36,
      "type": "SCALAR"
    },
    {
      "bufferView": 166,
      "componentType": 5126,
      "count": 8,
      "type": "VEC3",
      "min": [
        -1.2,
        1.01,
        28.31
      ],
      "max": [
        1.2,
        1.1900000000000002,
        28.49
      ]
    },
    {
      "bufferView": 167,
      "componentType": 5123,
      "count": 36,
      "type": "SCALAR"
    },
    {
      "bufferView": 168,
      "componentType": 5126,
      "count": 8,
      "type": "VEC3",
      "min": [
        -0.225,
        2.125,
        27.275
      ],
      "max": [
        0.225,
        2.575,
        27.725
      ]
    },
    {
      "bufferView": 169,
      "componentType": 5123,
      "count": 36,
      "type": "SCALAR"
    },
    {
      "bufferView": 170,
      "componentType": 5126,
      "count": 8,
      "type": "VEC3",
      "min": [
        -1.475,
        0.15000000000000002,
        28.425
      ],
      "max": [
        -1.125,
        1.35,
        28.775000000000002
      ]
    },
    {
      "bufferView": 171,
      "componentType": 5123,
      "count": 36,
      "type": "SCALAR"
    },
    {
      "bufferView": 172,
      "componentType": 5126,
      "count": 8,
      "type": "VEC3",
      "min": [
        -1.36,
        1.2,
        28.540000000000003
      ],
      "max": [
        -1.24,
        1.7,
        28.66
      ]
    },
    {
      "bufferView": 173,
      "componentType": 5123,
      "count": 36,
      "type": "SCALAR"
    },
    {
      "bufferView": 174,
      "componentType": 5126,
      "count": 8,
      "type": "VEC3",
      "min": [
        1.125,
        0.15000000000000002,
        28.425
      ],
      "max": [
        1.475,
        1.35,
        28.775000000000002
      ]
    },
    {
      "bufferView": 175,
      "componentType": 5123,
      "count": 36,
      "type": "SCALAR"
    },
    {
      "bufferView": 176,
      "componentType": 5126,
      "count": 8,
      "type": "VEC3",
      "min": [
        1.24,
        1.2,
        28.540000000000003
      ],
      "max": [
        1.36,
        1.7,
        28.66
      ]
    },
    {
      "bufferView": 177,
      "componentType": 5123,
      "count": 36,
      "type": "SCALAR"
    },
    {
      "bufferView": 178,
      "componentType": 5126,
      "count": 8,
      "type": "VEC3",
      "min": [
        -0.125,
        0.019999999999999997,
        0.875
      ],
      "max": [
        0.125,
        0.04,
        1.125
      ]
    },
    {
      "bufferView": 179,
      "componentType": 5123,
      "count": 36,
      "type": "SCALAR"
    },
    {
      "bufferView": 180,
      "componentType": 5126,
      "count": 8,
      "type": "VEC3",
      "min": [
        -0.125,
        0.019999999999999997,
        7.875
      ],
      "max": [
        0.125,
        0.04,
        8.125
      ]
    },
    {
      "bufferView": 181,
      "componentType": 5123,
      "count": 36,
      "type": "SCALAR"
    },
    {
      "bufferView": 182,
      "componentType": 5126,
      "count": 8,
      "type": "VEC3",
      "min": [
        -0.125,
        0.019999999999999997,
        14.875
      ],
      "max": [
        0.125,
        0.04,
        15.125
      ]
    },
    {
      "bufferView": 183,
      "componentType": 5123,
      "count": 36,
      "type": "SCALAR"
    },
    {
      "bufferView": 184,
      "componentType": 5126,
      "count": 8,
      "type": "VEC3",
      "min": [
        -0.125,
        0.019999999999999997,
        20.875
      ],
      "max": [
        0.125,
        0.04,
        21.125
      ]
    },
    {
      "bufferView": 185,
      "componentType": 5123,
      "count": 36,
      "type": "SCALAR"
    },
    {
      "bufferView": 186,
      "componentType": 5126,
      "count": 8,
      "type": "VEC3",
      "min": [
        -0.125,
        0.019999999999999997,
        27.875
      ],
      "max": [
        0.125,
        0.04,
        28.125
      ]
    },
    {
      "bufferView": 187,
      "componentType": 5123,
      "count": 36,
      "type": "SCALAR"
    }
  ],
  "bufferViews": [
    {
      "buffer": 0,
      "byteOffset": 0,
      "byteLength": 96,
      "target": 34962
    },
    {
      "buffer": 0,
      "byteOffset": 96,
      "byteLength": 72,
      "target": 34963
    },
    {
      "buffer": 0,
      "byteOffset": 168,
      "byteLength": 96,
      "target": 34962
    },
    {
      "buffer": 0,
      "byteOffset": 264,
      "byteLength": 72,
      "target": 34963
    },
    {
      "buffer": 0,
      "byteOffset": 336,
      "byteLength": 96,
      "target": 34962
    },
    {
      "buffer": 0,
      "byteOffset": 432,
      "byteLength": 72,
      "target": 34963
    },
    {
      "buffer": 0,
      "byteOffset": 504,
      "byteLength": 96,
      "target": 34962
    },
    {
      "buffer": 0,
      "byteOffset": 600,
      "byteLength": 72,
      "target": 34963
    },
    {
      "buffer": 0,
      "byteOffset": 672,
      "byteLength": 96,
      "target": 34962
    },
    {
      "buffer": 0,
      "byteOffset": 768,
      "byteLength": 72,
      "target": 34963
    },
    {
      "buffer": 0,
      "byteOffset": 840,
      "byteLength": 96,
      "target": 34962
    },
    {
      "buffer": 0,
      "byteOffset": 936,
      "byteLength": 72,
      "target": 34963
    },
    {
      "buffer": 0,
      "byteOffset": 1008,
      "byteLength": 96,
      "target": 34962
    },
    {
      "buffer": 0,
      "byteOffset": 1104,
      "byteLength": 72,
      "target": 34963
    },
    {
      "buffer": 0,
      "byteOffset": 1176,
      "byteLength": 96,
      "target": 34962
    },
    {
      "buffer": 0,
      "byteOffset": 1272,
      "byteLength": 72,
      "target": 34963
    },
    {
      "buffer": 0,
      "byteOffset": 1344,
      "byteLength": 96,
      "target": 34962
    },
    {
      "buffer": 0,
      "byteOffset": 1440,
      "byteLength": 72,
      "target": 34963
    },
    {
      "buffer": 0,
      "byteOffset": 1512,
      "byteLength": 96,
      "target": 34962
    },
    {
      "buffer": 0,
      "byteOffset": 1608,
      "byteLength": 72,
      "target": 34963
    },
    {
      "buffer": 0,
      "byteOffset": 1680,
      "byteLength": 96,
      "target": 34962
    },
    {
      "buffer": 0,
      "byteOffset": 1776,
      "byteLength": 72,
      "target": 34963
    },
    {
      "buffer": 0,
      "byteOffset": 1848,
      "byteLength": 96,
      "target": 34962
    },
    {
      "buffer": 0,
      "byteOffset": 1944,
      "byteLength": 72,
      "target": 34963
    },
    {
      "buffer": 0,
      "byteOffset": 2016,
      "byteLength": 96,
      "target": 34962
    },
    {
      "buffer": 0,
      "byteOffset": 2112,
      "byteLength": 72,
      "target": 34963
    },
    {
      "buffer": 0,
      "byteOffset": 2184,
      "byteLength": 96,
      "target": 34962
    },
    {
      "buffer": 0,
      "byteOffset": 2280,
      "byteLength": 72,
      "target": 34963
    },
    {
      "buffer": 0,
      "byteOffset": 2352,
      "byteLength": 96,
      "target": 34962
    },
    {
      "buffer": 0,
      "byteOffset": 2448,
      "byteLength": 72,
      "target": 34963
    },
    {
      "buffer": 0,
      "byteOffset": 2520,
      "byteLength": 96,
      "target": 34962
    },
    {
      "buffer": 0,
      "byteOffset": 2616,
      "byteLength": 72,
      "target": 34963
    },
    {
      "buffer": 0,
      "byteOffset": 2688,
      "byteLength": 96,
      "target": 34962
    },
    {
      "buffer": 0,
      "byteOffset": 2784,
      "byteLength": 72,
      "target": 34963
    },
    {
      "buffer": 0,
      "byteOffset": 2856,
      "byteLength": 96,
      "target": 34962
    },
    {
      "buffer": 0,
      "byteOffset": 2952,
      "byteLength": 72,
      "target": 34963
    },
    {
      "buffer": 0,
      "byteOffset": 3024,
      "byteLength": 96,
      "target": 34962
    },
    {
      "buffer": 0,
      "byteOffset": 3120,
      "byteLength": 72,
      "target": 34963
    },
    {
      "buffer": 0,
      "byteOffset": 3192,
      "byteLength": 96,
      "target": 34962
    },
    {
      "buffer": 0,
      "byteOffset": 3288,
      "byteLength": 72,
      "target": 34963
    },
    {
      "buffer": 0,
      "byteOffset": 3360,
      "byteLength": 96,
      "target": 34962
    },
    {
      "buffer": 0,
      "byteOffset": 3456,
      "byteLength": 72,
      "target": 34963
    },
    {
      "buffer": 0,
      "byteOffset": 3528,
      "byteLength": 96,
      "target": 34962
    },
    {
      "buffer": 0,
      "byteOffset": 3624,
      "byteLength": 72,
      "target": 34963
    },
    {
      "buffer": 0,
      "byteOffset": 3696,
      "byteLength": 96,
      "target": 34962
    },
    {
      "buffer": 0,
      "byteOffset": 3792,
      "byteLength": 72,
      "target": 34963
    },
    {
      "buffer": 0,
      "byteOffset": 3864,
      "byteLength": 96,
      "target": 34962
    },
    {
      "buffer": 0,
      "byteOffset": 3960,
      "byteLength": 72,
      "target": 34963
    },
    {
      "buffer": 0,
      "byteOffset": 4032,
      "byteLength": 96,
      "target": 34962
    },
    {
      "buffer": 0,
      "byteOffset": 4128,
      "byteLength": 72,
      "target": 34963
    },
    {
      "buffer": 0,
      "byteOffset": 4200,
      "byteLength": 96,
      "target": 34962
    },
    {
      "buffer": 0,
      "byteOffset": 4296,
      "byteLength": 72,
      "target": 34963
    },
    {
      "buffer": 0,
      "byteOffset": 4368,
      "byteLength": 96,
      "target": 34962
    },
    {
      "buffer": 0,
      "byteOffset": 4464,
      "byteLength": 72,
      "target": 34963
    },
    {
      "buffer": 0,
      "byteOffset": 4536,
      "byteLength": 96,
      "target": 34962
    },
    {
      "buffer": 0,
      "byteOffset": 4632,
      "byteLength": 72,
      "target": 34963
    },
    {
      "buffer": 0,
      "byteOffset": 4704,
      "byteLength": 96,
      "target": 34962
    },
    {
      "buffer": 0,
      "byteOffset": 4800,
      "byteLength": 72,
      "target": 34963
    },
    {
      "buffer": 0,
      "byteOffset": 4872,
      "byteLength": 96,
      "target": 34962
    },
    {
      "buffer": 0,
      "byteOffset": 4968,
      "byteLength": 72,
      "target": 34963
    },
    {
      "buffer": 0,
      "byteOffset": 5040,
      "byteLength": 96,
      "target": 34962
    },
    {
      "buffer": 0,
      "byteOffset": 5136,
      "byteLength": 72,
      "target": 34963
    },
    {
      "buffer": 0,
      "byteOffset": 5208,
      "byteLength": 96,
      "target": 34962
    },
    {
      "buffer": 0,
      "byteOffset": 5304,
      "byteLength": 72,
      "target": 34963
    },
    {
      "buffer": 0,
      "byteOffset": 5376,
      "byteLength": 96,
      "target": 34962
    },
    {
      "buffer": 0,
      "byteOffset": 5472,
      "byteLength": 72,
      "target": 34963
    },
    {
      "buffer": 0,
      "byteOffset": 5544,
      "byteLength": 96,
      "target": 34962
    },
    {
      "buffer": 0,
      "byteOffset": 5640,
      "byteLength": 72,
      "target": 34963
    },
    {
      "buffer": 0,
      "byteOffset": 5712,
      "byteLength": 96,
      "target": 34962
    },
    {
      "buffer": 0,
      "byteOffset": 5808,
      "byteLength": 72,
      "target": 34963
    },
    {
      "buffer": 0,
      "byteOffset": 5880,
      "byteLength": 96,
      "target": 34962
    },
    {
      "buffer": 0,
      "byteOffset": 5976,
      "byteLength": 72,
      "target": 34963
    },
    {
      "buffer": 0,
      "byteOffset": 6048,
      "byteLength": 96,
      "target": 34962
    },
    {
      "buffer": 0,
      "byteOffset": 6144,
      "byteLength": 72,
      "target": 34963
    },
    {
      "buffer": 0,
      "byteOffset": 6216,
      "byteLength": 96,
      "target": 34962
    },
    {
      "buffer": 0,
      "byteOffset": 6312,
      "byteLength": 72,
      "target": 34963
    },
    {
      "buffer": 0,
      "byteOffset": 6384,
      "byteLength": 96,
      "target": 34962
    },
    {
      "buffer": 0,
      "byteOffset": 6480,
      "byteLength": 72,
      "target": 34963
    },
    {
      "buffer": 0,
      "byteOffset": 6552,
      "byteLength": 96,
      "target": 34962
    },
    {
      "buffer": 0,
      "byteOffset": 6648,
      "byteLength": 72,
      "target": 34963
    },
    {
      "buffer": 0,
      "byteOffset": 6720,
      "byteLength": 96,
      "target": 34962
    },
    {
      "buffer": 0,
      "byteOffset": 6816,
      "byteLength": 72,
      "target": 34963
    },
    {
      "buffer": 0,
      "byteOffset": 6888,
      "byteLength": 96,
      "target": 34962
    },
    {
      "buffer": 0,
      "byteOffset": 6984,
      "byteLength": 72,
      "target": 34963
    },
    {
      "buffer": 0,
      "byteOffset": 7056,
      "byteLength": 96,
      "target": 34962
    },
    {
      "buffer": 0,
      "byteOffset": 7152,
      "byteLength": 72,
      "target": 34963
    },
    {
      "buffer": 0,
      "byteOffset": 7224,
      "byteLength": 96,
      "target": 34962
    },
    {
      "buffer": 0,
      "byteOffset": 7320,
      "byteLength": 72,
      "target": 34963
    },
    {
      "buffer": 0,
      "byteOffset": 7392,
      "byteLength": 96,
      "target": 34962
    },
    {
      "buffer": 0,
      "byteOffset": 7488,
      "byteLength": 72,
      "target": 34963
    },
    {
      "buffer": 0,
      "byteOffset": 7560,
      "byteLength": 96,
      "target": 34962
    },
    {
      "buffer": 0,
      "byteOffset": 7656,
      "byteLength": 72,
      "target": 34963
    },
    {
      "buffer": 0,
      "byteOffset": 7728,
      "byteLength": 96,
      "target": 34962
    },
    {
      "buffer": 0,
      "byteOffset": 7824,
      "byteLength": 72,
      "target": 34963
    },
    {
      "buffer": 0,
      "byteOffset": 7896,
      "byteLength": 96,
      "target": 34962
    },
    {
      "buffer": 0,
      "byteOffset": 7992,
      "byteLength": 72,
      "target": 34963
    },
    {
      "buffer": 0,
      "byteOffset": 8064,
      "byteLength": 96,
      "target": 34962
    },
    {
      "buffer": 0,
      "byteOffset": 8160,
      "byteLength": 72,
      "target": 34963
    },
    {
      "buffer": 0,
      "byteOffset": 8232,
      "byteLength": 96,
      "target": 34962
    },
    {
      "buffer": 0,
      "byteOffset": 8328,
      "byteLength": 72,
      "target": 34963
    },
    {
      "buffer": 0,
      "byteOffset": 8400,
      "byteLength": 96,
      "target": 34962
    },
    {
      "buffer": 0,
      "byteOffset": 8496,
      "byteLength": 72,
      "target": 34963
    },
    {
      "buffer": 0,
      "byteOffset": 8568,
      "byteLength": 96,
      "target": 34962
    },
    {
      "buffer": 0,
      "byteOffset": 8664,
      "byteLength": 72,
      "target": 34963
    },
    {
      "buffer": 0,
      "byteOffset": 8736,
      "byteLength": 96,
      "target": 34962
    },
    {
      "buffer": 0,
      "byteOffset": 8832,
      "byteLength": 72,
      "target": 34963
    },
    {
      "buffer": 0,
      "byteOffset": 8904,
      "byteLength": 96,
      "target": 34962
    },
    {
      "buffer": 0,
      "byteOffset": 9000,
      "byteLength": 72,
      "target": 34963
    },
    {
      "buffer": 0,
      "byteOffset": 9072,
      "byteLength": 96,
      "target": 34962
    },
    {
      "buffer": 0,
      "byteOffset": 9168,
      "byteLength": 72,
      "target": 34963
    },
    {
      "buffer": 0,
      "byteOffset": 9240,
      "byteLength": 96,
      "target": 34962
    },
    {
      "buffer": 0,
      "byteOffset": 9336,
      "byteLength": 72,
      "target": 34963
    },
    {
      "buffer": 0,
      "byteOffset": 9408,
      "byteLength": 96,
      "target": 34962
    },
    {
      "buffer": 0,
      "byteOffset": 9504,
      "byteLength": 72,
      "target": 34963
    },
    {
      "buffer": 0,
      "byteOffset": 9576,
      "byteLength": 96,
      "target": 34962
    },
    {
      "buffer": 0,
      "byteOffset": 9672,
      "byteLength": 72,
      "target": 34963
    },
    {
      "buffer": 0,
      "byteOffset": 9744,
      "byteLength": 96,
      "target": 34962
    },
    {
      "buffer": 0,
      "byteOffset": 9840,
      "byteLength": 72,
      "target": 34963
    },
    {
      "buffer": 0,
      "byteOffset": 9912,
      "byteLength": 96,
      "target": 34962
    },
    {
      "buffer": 0,
      "byteOffset": 10008,
      "byteLength": 72,
      "target": 34963
    },
    {
      "buffer": 0,
      "byteOffset": 10080,
      "byteLength": 96,
      "target": 34962
    },
    {
      "buffer": 0,
      "byteOffset": 10176,
      "byteLength": 72,
      "target": 34963
    },
    {
      "buffer": 0,
      "byteOffset": 10248,
      "byteLength": 96,
      "target": 34962
    },
    {
      "buffer": 0,
      "byteOffset": 10344,
      "byteLength": 72,
      "target": 34963
    },
    {
      "buffer": 0,
      "byteOffset": 10416,
      "byteLength": 96,
      "target": 34962
    },
    {
      "buffer": 0,
      "byteOffset": 10512,
      "byteLength": 72,
      "target": 34963
    },
    {
      "buffer": 0,
      "byteOffset": 10584,
      "byteLength": 96,
      "target": 34962
    },
    {
      "buffer": 0,
      "byteOffset": 10680,
      "byteLength": 72,
      "target": 34963
    },
    {
      "buffer": 0,
      "byteOffset": 10752,
      "byteLength": 96,
      "target": 34962
    },
    {
      "buffer": 0,
      "byteOffset": 10848,
      "byteLength": 72,
      "target": 34963
    },
    {
      "buffer": 0,
      "byteOffset": 10920,
      "byteLength": 96,
      "target": 34962
    },
    {
      "buffer": 0,
      "byteOffset": 11016,
      "byteLength": 72,
      "target": 34963
    },
    {
      "buffer": 0,
      "byteOffset": 11088,
      "byteLength": 96,
      "target": 34962
    },
    {
      "buffer": 0,
      "byteOffset": 11184,
      "byteLength": 72,
      "target": 34963
    },
    {
      "buffer": 0,
      "byteOffset": 11256,
      "byteLength": 96,
      "target": 34962
    },
    {
      "buffer": 0,
      "byteOffset": 11352,
      "byteLength": 72,
      "target": 34963
    },
    {
      "buffer": 0,
      "byteOffset": 11424,
      "byteLength": 96,
      "target": 34962
    },
    {
      "buffer": 0,
      "byteOffset": 11520,
      "byteLength": 72,
      "target": 34963
    },
    {
      "buffer": 0,
      "byteOffset": 11592,
      "byteLength": 96,
      "target": 34962
    },
    {
      "buffer": 0,
      "byteOffset": 11688,
      "byteLength": 72,
      "target": 34963
    },
    {
      "buffer": 0,
      "byteOffset": 11760,
      "byteLength": 96,
      "target": 34962
    },
    {
      "buffer": 0,
      "byteOffset": 11856,
      "byteLength": 72,
      "target": 34963
    },
    {
      "buffer": 0,
      "byteOffset": 11928,
      "byteLength": 96,
      "target": 34962
    },
    {
      "buffer": 0,
      "byteOffset": 12024,
      "byteLength": 72,
      "target": 34963
    },
    {
      "buffer": 0,
      "byteOffset": 12096,
      "byteLength": 96,
      "target": 34962
    },
    {
      "buffer": 0,
      "byteOffset": 12192,
      "byteLength": 72,
      "target": 34963
    },
    {
      "buffer": 0,
      "byteOffset": 12264,
      "byteLength": 96,
      "target": 34962
    },
    {
      "buffer": 0,
      "byteOffset": 12360,
      "byteLength": 72,
      "target": 34963
    },
    {
      "buffer": 0,
      "byteOffset": 12432,
      "byteLength": 96,
      "target": 34962
    },
    {
      "buffer": 0,
      "byteOffset": 12528,
      "byteLength": 72,
      "target": 34963
    },
    {
      "buffer": 0,
      "byteOffset": 12600,
      "byteLength": 96,
      "target": 34962
    },
    {
      "buffer": 0,
      "byteOffset": 12696,
      "byteLength": 72,
      "target": 34963
    },
    {
      "buffer": 0,
      "byteOffset": 12768,
      "byteLength": 96,
      "target": 34962
    },
    {
      "buffer": 0,
      "byteOffset": 12864,
      "byteLength": 72,
      "target": 34963
    },
    {
      "buffer": 0,
      "byteOffset": 12936,
      "byteLength": 96,
      "target": 34962
    },
    {
      "buffer": 0,
      "byteOffset": 13032,
      "byteLength": 72,
      "target": 34963
    },
    {
      "buffer": 0,
      "byteOffset": 13104,
      "byteLength": 96,
      "target": 34962
    },
    {
      "buffer": 0,
      "byteOffset": 13200,
      "byteLength": 72,
      "target": 34963
    },
    {
      "buffer": 0,
      "byteOffset": 13272,
      "byteLength": 96,
      "target": 34962
    },
    {
      "buffer": 0,
      "byteOffset": 13368,
      "byteLength": 72,
      "target": 34963
    },
    {
      "buffer": 0,
      "byteOffset": 13440,
      "byteLength": 96,
      "target": 34962
    },
    {
      "buffer": 0,
      "byteOffset": 13536,
      "byteLength": 72,
      "target": 34963
    },
    {
      "buffer": 0,
      "byteOffset": 13608,
      "byteLength": 96,
      "target": 34962
    },
    {
      "buffer": 0,
      "byteOffset": 13704,
      "byteLength": 72,
      "target": 34963
    },
    {
      "buffer": 0,
      "byteOffset": 13776,
      "byteLength": 96,
      "target": 34962
    },
    {
      "buffer": 0,
      "byteOffset": 13872,
      "byteLength": 72,
      "target": 34963
    },
    {
      "buffer": 0,
      "byteOffset": 13944,
      "byteLength": 96,
      "target": 34962
    },
    {
      "buffer": 0,
      "byteOffset": 14040,
      "byteLength": 72,
      "target": 34963
    },
    {
      "buffer": 0,
      "byteOffset": 14112,
      "byteLength": 96,
      "target": 34962
    },
    {
      "buffer": 0,
      "byteOffset": 14208,
      "byteLength": 72,
      "target": 34963
    },
    {
      "buffer": 0,
      "byteOffset": 14280,
      "byteLength": 96,
      "target": 34962
    },
    {
      "buffer": 0,
      "byteOffset": 14376,
      "byteLength": 72,
      "target": 34963
    },
    {
      "buffer": 0,
      "byteOffset": 14448,
      "byteLength": 96,
      "target": 34962
    },
    {
      "buffer": 0,
      "byteOffset": 14544,
      "byteLength": 72,
      "target": 34963
    },
    {
      "buffer": 0,
      "byteOffset": 14616,
      "byteLength": 96,
      "target": 34962
    },
    {
      "buffer": 0,
      "byteOffset": 14712,
      "byteLength": 72,
      "target": 34963
    },
    {
      "buffer": 0,
      "byteOffset": 14784,
      "byteLength": 96,
      "target": 34962
    },
    {
      "buffer": 0,
      "byteOffset": 14880,
      "byteLength": 72,
      "target": 34963
    },
    {
      "buffer": 0,
      "byteOffset": 14952,
      "byteLength": 96,
      "target": 34962
    },
    {
      "buffer": 0,
      "byteOffset": 15048,
      "byteLength": 72,
      "target": 34963
    },
    {
      "buffer": 0,
      "byteOffset": 15120,
      "byteLength": 96,
      "target": 34962
    },
    {
      "buffer": 0,
      "byteOffset": 15216,
      "byteLength": 72,
      "target": 34963
    },
    {
      "buffer": 0,
      "byteOffset": 15288,
      "byteLength": 96,
      "target": 34962
    },
    {
      "buffer": 0,
      "byteOffset": 15384,
      "byteLength": 72,
      "target": 34963
    },
    {
      "buffer": 0,
      "byteOffset": 15456,
      "byteLength": 96,
      "target": 34962
    },
    {
      "buffer": 0,
      "byteOffset": 15552,
      "byteLength": 72,
      "target": 34963
    },
    {
      "buffer": 0,
      "byteOffset": 15624,
      "byteLength": 96,
      "target": 34962
    },
    {
      "buffer": 0,
      "byteOffset": 15720,
      "byteLength": 72,
      "target": 34963
    }
  ],
  "buffers": [
    {
      "byteLength": 15792,
      "uri": "surrender-machines-spatial.bin"
    }
  ],
  "extras": {
    "title": "Machine Aesthetic: Surrender Machines",
    "author": "Mark Walhimer",
    "cohort": "Loop Art Critique 21",
    "units": "meters",
    "visitor_sequence": [
      "Entry antechamber (8 people) \u2014 black room, votive threshold",
      "Doorway with shape outline (placeholder arch \u2014 replace with final form)",
      "Long hallway",
      "Room 1 \u2014 Intake machine: tell it what you are trying to accept",
      "Hallway",
      "Room 2 \u2014 Large surrender machine: adjust ego / acceptance (8\u201310 people)"
    ],
    "notes": "Spatial diagram for critique and planning. Doorway shape is provisional."
  }
}